Roman_opsz8_wght700.ufo
<glyph name="numbersign" format="2">
  <advance width="1020"/>
  <unicode hex="0023"/>
  <outline>
    <contour>
      <point x="238" y="-194" type="curve" smooth="yes"/>
      <point x="260" y="-194"/>
      <point x="269" y="-177"/>
      <point x="273" y="-164" type="curve" smooth="yes"/>
      <point x="358" y="95" type="line"/>
      <point x="559" y="95" type="line"/>
      <point x="481" y="-141" type="line" smooth="yes"/>
      <point x="476" y="-155"/>
      <point x="476" y="-157"/>
      <point x="476" y="-160" type="curve" smooth="yes"/>
      <point x="476" y="-179"/>
      <point x="491" y="-194"/>
      <point x="510" y="-194" type="curve" smooth="yes"/>
      <point x="532" y="-194"/>
      <point x="541" y="-177"/>
      <point x="545" y="-164" type="curve" smooth="yes"/>
      <point x="630" y="95" type="line"/>
      <point x="902" y="95" type="line" smooth="yes"/>
      <point x="916" y="95"/>
      <point x="952" y="95"/>
      <point x="952" y="129" type="curve" smooth="yes"/>
      <point x="952" y="163"/>
      <point x="920" y="163"/>
      <point x="908" y="163" type="curve" smooth="yes"/>
      <point x="654" y="163" type="line"/>
      <point x="710" y="337" type="line"/>
      <point x="908" y="337" type="line" smooth="yes"/>
      <point x="920" y="337"/>
      <point x="952" y="337"/>
      <point x="952" y="371" type="curve" smooth="yes"/>
      <point x="952" y="405"/>
      <point x="916" y="405"/>
      <point x="902" y="405" type="curve" smooth="yes"/>
      <point x="733" y="405" type="line"/>
      <point x="811" y="641" type="line" smooth="yes"/>
      <point x="816" y="655"/>
      <point x="816" y="657"/>
      <point x="816" y="660" type="curve" smooth="yes"/>
      <point x="816" y="679"/>
      <point x="801" y="694"/>
      <point x="782" y="694" type="curve" smooth="yes"/>
      <point x="760" y="694"/>
      <point x="751" y="677"/>
      <point x="747" y="664" type="curve" smooth="yes"/>
      <point x="662" y="405" type="line"/>
      <point x="461" y="405" type="line"/>
      <point x="539" y="641" type="line" smooth="yes"/>
      <point x="544" y="655"/>
      <point x="544" y="657"/>
      <point x="544" y="660" type="curve" smooth="yes"/>
      <point x="544" y="679"/>
      <point x="529" y="694"/>
      <point x="510" y="694" type="curve" smooth="yes"/>
      <point x="488" y="694"/>
      <point x="479" y="677"/>
      <point x="475" y="664" type="curve" smooth="yes"/>
      <point x="390" y="405" type="line"/>
      <point x="118" y="405" type="line" smooth="yes"/>
      <point x="104" y="405"/>
      <point x="68" y="405"/>
      <point x="68" y="371" type="curve" smooth="yes"/>
      <point x="68" y="337"/>
      <point x="100" y="337"/>
      <point x="112" y="337" type="curve" smooth="yes"/>
      <point x="366" y="337" type="line"/>
      <point x="310" y="163" type="line"/>
      <point x="112" y="163" type="line" smooth="yes"/>
      <point x="100" y="163"/>
      <point x="68" y="163"/>
      <point x="68" y="129" type="curve" smooth="yes"/>
      <point x="68" y="95"/>
      <point x="104" y="95"/>
      <point x="118" y="95" type="curve" smooth="yes"/>
      <point x="287" y="95" type="line"/>
      <point x="209" y="-141" type="line" smooth="yes"/>
      <point x="204" y="-155"/>
      <point x="204" y="-157"/>
      <point x="204" y="-160" type="curve" smooth="yes"/>
      <point x="204" y="-179"/>
      <point x="219" y="-194"/>
    </contour>
    <contour>
      <point x="382" y="163" type="line"/>
      <point x="438" y="337" type="line"/>
      <point x="638" y="337" type="line"/>
      <point x="582" y="163" type="line"/>
    </contour>
  </outline>
</glyph>
<glyph name="dollar" format="2">
  <advance width="612"/>
  <unicode hex="0024"/>
  <outline>
    <contour>
      <point x="280" y="-56" type="line"/>
      <point x="332" y="-56" type="line"/>
      <point x="332" y="-6" type="line"/>
      <point x="500" y="9"/>
      <point x="544" y="130"/>
      <point x="544" y="211" type="curve" smooth="yes"/>
      <point x="544.0" y="250.84882"/>
      <point x="530.5120861227" y="312.2053945611"/>
      <point x="481.30643745103407" y="360.9546519788919" type="curve" smooth="yes"/>
      <point x="449.0147466198" y="392.9468315616"/>
      <point x="401.34024999999997" y="419.50933"/>
      <point x="332" y="431" type="curve"/>
      <point x="332" y="648" type="line"/>
      <point x="417" y="641"/>
      <point x="454" y="611"/>
      <point x="470" y="585" type="curve"/>
      <point x="470" y="585" type="line"/>
      <point x="423" y="578"/>
      <point x="409" y="545"/>
      <point x="409" y="518" type="curve" smooth="yes"/>
      <point x="409" y="473"/>
      <point x="445" y="450"/>
      <point x="476" y="450" type="curve" smooth="yes"/>
      <point x="500" y="450"/>
      <point x="544" y="465"/>
      <point x="544" y="521" type="curve" smooth="yes"/>
      <point x="544" y="620"/>
      <point x="470" y="693"/>
      <point x="332" y="700" type="curve"/>
      <point x="332" y="750" type="line"/>
      <point x="280" y="750" type="line"/>
      <point x="280" y="700" type="line"/>
      <point x="126" y="689"/>
      <point x="68" y="586"/>
      <point x="68" y="497" type="curve" smooth="yes"/>
      <point x="68" y="431"/>
      <point x="101" y="384"/>
      <point x="133" y="354" type="curve" smooth="yes"/>
      <point x="184" y="309"/>
      <point x="236" y="299"/>
      <point x="280" y="290" type="curve"/>
      <point x="280" y="46" type="line"/>
      <point x="225" y="51"/>
      <point x="169" y="68"/>
      <point x="140" y="122" type="curve"/>
      <point x="140" y="122" type="line"/>
      <point x="172" y="125"/>
      <point x="203" y="149"/>
      <point x="203" y="190" type="curve" smooth="yes"/>
      <point x="203" y="229"/>
      <point x="175" y="257"/>
      <point x="136" y="257" type="curve" smooth="yes"/>
      <point x="102" y="257"/>
      <point x="68" y="236"/>
      <point x="68" y="186" type="curve" smooth="yes"/>
      <point x="68" y="106"/>
      <point x="117" y="5"/>
      <point x="280" y="-6" type="curve"/>
    </contour>
    <contour>
      <point x="280" y="442" type="line"/>
      <point x="190" y="458"/>
      <point x="154" y="503"/>
      <point x="154" y="545" type="curve" smooth="yes"/>
      <point x="154" y="598"/>
      <point x="198" y="641"/>
      <point x="280" y="648" type="curve"/>
    </contour>
    <contour>
      <point x="332" y="279" type="line"/>
      <point x="404" y="268"/>
      <point x="458" y="223"/>
      <point x="458" y="162" type="curve" smooth="yes"/>
      <point x="458" y="103"/>
      <point x="413" y="54"/>
      <point x="332" y="46" type="curve"/>
    </contour>
  </outline>
</glyph>
<glyph name="asterisk" format="2">
  <advance width="612"/>
  <unicode hex="002A"/>
  <outline>
    <contour>
      <point x="330" y="490" type="line"/>
      <point x="456" y="400" type="line" smooth="yes"/>
      <point x="471" y="390"/>
      <point x="477" y="389"/>
      <point x="485" y="389" type="curve" smooth="yes"/>
      <point x="512" y="389"/>
      <point x="533" y="415"/>
      <point x="533" y="441" type="curve" smooth="yes"/>
      <point x="533" y="466"/>
      <point x="522" y="473"/>
      <point x="516" y="477" type="curve"/>
      <point x="362" y="528" type="line"/>
      <point x="499" y="572" type="line" smooth="yes"/>
      <point x="516" y="577"/>
      <point x="533" y="589"/>
      <point x="533" y="615" type="curve" smooth="yes"/>
      <point x="533" y="641"/>
      <point x="512" y="667"/>
      <point x="485" y="667" type="curve" smooth="yes"/>
      <point x="477" y="667"/>
      <point x="471" y="666"/>
      <point x="456" y="656" type="curve" smooth="yes"/>
      <point x="330" y="566" type="line"/>
      <point x="353" y="695" type="line"/>
      <point x="353" y="698"/>
      <point x="355" y="705"/>
      <point x="355" y="708" type="curve" smooth="yes"/>
      <point x="355" y="731"/>
      <point x="333" y="750"/>
      <point x="306" y="750" type="curve" smooth="yes"/>
      <point x="279" y="750"/>
      <point x="257" y="731"/>
      <point x="257" y="708" type="curve" smooth="yes"/>
      <point x="257" y="706"/>
      <point x="259" y="695"/>
      <point x="260" y="691" type="curve"/>
      <point x="282" y="566" type="line"/>
      <point x="156" y="656" type="line" smooth="yes"/>
      <point x="141" y="666"/>
      <point x="135" y="667"/>
      <point x="127" y="667" type="curve" smooth="yes"/>
      <point x="100" y="667"/>
      <point x="79" y="641"/>
      <point x="79" y="615" type="curve" smooth="yes"/>
      <point x="79" y="589"/>
      <point x="97" y="577"/>
      <point x="113" y="572" type="curve" smooth="yes"/>
      <point x="250" y="528" type="line"/>
      <point x="113" y="484" type="line" smooth="yes"/>
      <point x="96" y="479"/>
      <point x="79" y="467"/>
      <point x="79" y="441" type="curve" smooth="yes"/>
      <point x="79" y="415"/>
      <point x="100" y="389"/>
      <point x="127" y="389" type="curve" smooth="yes"/>
      <point x="135" y="389"/>
      <point x="141" y="390"/>
      <point x="156" y="400" type="curve" smooth="yes"/>
      <point x="282" y="490" type="line"/>
      <point x="259" y="361" type="line"/>
      <point x="259" y="358"/>
      <point x="257" y="351"/>
      <point x="257" y="348" type="curve" smooth="yes"/>
      <point x="257" y="325"/>
      <point x="279" y="306"/>
      <point x="306" y="306" type="curve" smooth="yes"/>
      <point x="333" y="306"/>
      <point x="355" y="325"/>
      <point x="355" y="348" type="curve" smooth="yes"/>
      <point x="355" y="350"/>
      <point x="353" y="361"/>
      <point x="352" y="365" type="curve"/>
    </contour>
  </outline>
</glyph>
<glyph name="period" format="2">
  <advance width="340"/>
  <unicode hex="002E"/>
  <outline>
    <contour>
      <point x="250" y="80" type="curve" smooth="yes"/>
      <point x="250" y="124"/>
      <point x="214" y="160"/>
      <point x="170" y="160" type="curve" smooth="yes"/>
      <point x="126" y="160"/>
      <point x="90" y="124"/>
      <point x="90" y="80" type="curve" smooth="yes"/>
      <point x="90" y="36"/>
      <point x="126" y="0"/>
      <point x="170" y="0" type="curve" smooth="yes"/>
      <point x="214" y="0"/>
      <point x="250" y="36"/>
    </contour>
  </outline>
</glyph>
<glyph name="zero" format="2">
  <advance width="612"/>
  <unicode hex="0030"/>
  <outline>
    <contour>
      <point x="564" y="319" type="curve" smooth="yes"/>
      <point x="564" y="435"/>
      <point x="555" y="658"/>
      <point x="306" y="658" type="curve" smooth="yes"/>
      <point x="56" y="658"/>
      <point x="48" y="433"/>
      <point x="48" y="319" type="curve" smooth="yes"/>
      <point x="48" y="207"/>
      <point x="55" y="-14"/>
      <point x="306" y="-14" type="curve" smooth="yes"/>
      <point x="558" y="-14"/>
      <point x="564" y="208"/>
    </contour>
    <contour>
      <point x="306" y="28" type="curve" smooth="yes"/>
      <point x="279" y="28"/>
      <point x="251" y="38"/>
      <point x="230" y="55" type="curve" smooth="yes"/>
      <point x="198" y="83"/>
      <point x="183" y="97"/>
      <point x="183" y="331" type="curve" smooth="yes"/>
      <point x="183" y="403"/>
      <point x="183" y="476"/>
      <point x="193" y="526" type="curve" smooth="yes"/>
      <point x="206" y="597"/>
      <point x="268" y="616"/>
      <point x="306" y="616" type="curve" smooth="yes"/>
      <point x="330" y="616"/>
      <point x="406" y="610"/>
      <point x="421" y="515" type="curve" smooth="yes"/>
      <point x="429" y="466"/>
      <point x="429" y="389"/>
      <point x="429" y="331" type="curve" smooth="yes"/>
      <point x="429" y="102"/>
      <point x="415" y="88"/>
      <point x="384" y="58" type="curve"/>
      <point x="376" y="49"/>
      <point x="348" y="28"/>
    </contour>
  </outline>
</glyph>
<glyph name="nine" format="2">
  <advance width="612"/>
  <unicode hex="0039"/>
  <outline>
    <contour>
      <point x="418" y="299" type="curve"/>
      <point x="418" y="223"/>
      <point x="413" y="163"/>
      <point x="392" y="117" type="curve" smooth="yes"/>
      <point x="372" y="76"/>
      <point x="325" y="33"/>
      <point x="253" y="33" type="curve" smooth="yes"/>
      <point x="243" y="33"/>
      <point x="202" y="33"/>
      <point x="171" y="53" type="curve"/>
      <point x="182" y="57"/>
      <point x="217" y="74"/>
      <point x="217" y="118" type="curve" smooth="yes"/>
      <point x="217" y="156"/>
      <point x="189" y="185"/>
      <point x="150" y="185" type="curve" smooth="yes"/>
      <point x="111" y="185"/>
      <point x="82" y="158"/>
      <point x="82" y="116" type="curve" smooth="yes"/>
      <point x="82" y="46"/>
      <point x="135" y="-14"/>
      <point x="255" y="-14" type="curve" smooth="yes"/>
      <point x="407" y="-14"/>
      <point x="561" y="84"/>
      <point x="561" y="328" type="curve" smooth="yes"/>
      <point x="561" y="398"/>
      <point x="554" y="486"/>
      <point x="510" y="556" type="curve" smooth="yes"/>
      <point x="467" y="624"/>
      <point x="398" y="658"/>
      <point x="308" y="658" type="curve" smooth="yes"/>
      <point x="156" y="658"/>
      <point x="51" y="576"/>
      <point x="51" y="440" type="curve" smooth="yes"/>
      <point x="51" y="399"/>
      <point x="57" y="335"/>
      <point x="120" y="281" type="curve" smooth="yes"/>
      <point x="163" y="246"/>
      <point x="205" y="224"/>
      <point x="294" y="224" type="curve" smooth="yes"/>
      <point x="362" y="224"/>
      <point x="402" y="273"/>
    </contour>
    <contour>
      <point x="296" y="267" type="curve" smooth="yes"/>
      <point x="194" y="267"/>
      <point x="194" y="345"/>
      <point x="194" y="439" type="curve" smooth="yes"/>
      <point x="194" y="530"/>
      <point x="194" y="615"/>
      <point x="309" y="615" type="curve" smooth="yes"/>
      <point x="416" y="615"/>
      <point x="416" y="495"/>
      <point x="416" y="437" type="curve" smooth="yes"/>
      <point x="416" y="335"/>
      <point x="371" y="267"/>
    </contour>
  </outline>
</glyph>
<glyph name="B" format="2">
  <advance width="869"/>
  <unicode hex="0042"/>
  <outline>
    <contour>
      <point x="800" y="187" type="curve" smooth="yes"/>
      <point x="800" y="270"/>
      <point x="728" y="344"/>
      <point x="588" y="359" type="curve"/>
      <point x="694" y="377"/>
      <point x="766" y="436"/>
      <point x="766" y="513" type="curve" smooth="yes"/>
      <point x="766" y="607"/>
      <point x="670" y="686"/>
      <point x="502" y="686" type="curve" smooth="yes"/>
      <point x="47" y="686" type="line"/>
      <point x="47" y="634" type="line"/>
      <point x="155" y="634" type="line"/>
      <point x="155" y="634" type="line"/>
      <point x="155" y="52" type="line"/>
      <point x="155" y="52" type="line"/>
      <point x="47" y="52" type="line"/>
      <point x="47" y="0" type="line"/>
      <point x="535" y="0" type="line" smooth="yes"/>
      <point x="706" y="0"/>
      <point x="800" y="85"/>
    </contour>
    <contour>
      <point x="291" y="378" type="line"/>
      <point x="291" y="634" type="line"/>
      <point x="291" y="634" type="line"/>
      <point x="489" y="634" type="line" smooth="yes"/>
      <point x="592" y="634"/>
      <point x="618" y="564"/>
      <point x="618" y="513" type="curve" smooth="yes"/>
      <point x="618" y="434"/>
      <point x="560" y="378"/>
      <point x="462" y="378" type="curve" smooth="yes"/>
    </contour>
    <contour>
      <point x="492" y="52" type="curve" smooth="yes"/>
      <point x="291" y="52" type="line"/>
      <point x="291" y="52" type="line"/>
      <point x="291" y="336" type="line"/>
      <point x="502" y="336" type="line" smooth="yes"/>
      <point x="621" y="336"/>
      <point x="646" y="247"/>
      <point x="646" y="189" type="curve" smooth="yes"/>
      <point x="646" y="107"/>
      <point x="591" y="52"/>
    </contour>
  </outline>
</glyph>
<glyph name="I" format="2">
  <advance width="459"/>
  <unicode hex="0049"/>
  <outline>
    <contour>
      <point x="42" y="0" type="line"/>
      <point x="79" y="3"/>
      <point x="186" y="3"/>
      <point x="229" y="3" type="curve" smooth="yes"/>
      <point x="272" y="3"/>
      <point x="380" y="3"/>
      <point x="417" y="0" type="curve"/>
      <point x="417" y="52" type="line"/>
      <point x="304" y="52" type="line"/>
      <point x="304" y="52" type="line"/>
      <point x="304" y="634" type="line"/>
      <point x="304" y="634" type="line"/>
      <point x="417" y="634" type="line"/>
      <point x="417" y="686" type="line"/>
      <point x="380" y="683"/>
      <point x="273" y="683"/>
      <point x="230" y="683" type="curve" smooth="yes"/>
      <point x="187" y="683"/>
      <point x="79" y="683"/>
      <point x="42" y="686" type="curve"/>
      <point x="42" y="634" type="line"/>
      <point x="155" y="634" type="line"/>
      <point x="155" y="634" type="line"/>
      <point x="155" y="52" type="line"/>
      <point x="155" y="52" type="line"/>
      <point x="42" y="52" type="line"/>
    </contour>
  </outline>
</glyph>
<glyph name="K" format="2">
  <advance width="956"/>
  <unicode hex="004B"/>
  <outline>
    <contour>
      <point x="47" y="0" type="line"/>
      <point x="85" y="3"/>
      <point x="186" y="3"/>
      <point x="230" y="3" type="curve" smooth="yes"/>
      <point x="273" y="3"/>
      <point x="374" y="3"/>
      <point x="412" y="0" type="curve"/>
      <point x="412" y="52" type="line"/>
      <point x="304" y="52" type="line"/>
      <point x="304" y="52" type="line"/>
      <point x="304" y="251" type="line"/>
      <point x="415" y="338" type="line"/>
      <point x="635" y="72" type="line" smooth="yes"/>
      <point x="639" y="67"/>
      <point x="642" y="64"/>
      <point x="642" y="61" type="curve" smooth="yes"/>
      <point x="642" y="52"/>
      <point x="597" y="52"/>
      <point x="575" y="52" type="curve"/>
      <point x="575" y="0" type="line"/>
      <point x="612" y="3"/>
      <point x="707" y="3"/>
      <point x="749" y="3" type="curve" smooth="yes"/>
      <point x="801" y="3"/>
      <point x="852" y="2"/>
      <point x="904" y="0" type="curve"/>
      <point x="904" y="52" type="line"/>
      <point x="820" y="52"/>
      <point x="819" y="53"/>
      <point x="806" y="69" type="curve" smooth="yes"/>
      <point x="518" y="418" type="line"/>
      <point x="775" y="618" type="line" smooth="yes"/>
      <point x="798" y="636"/>
      <point x="837" y="634"/>
      <point x="887" y="634" type="curve"/>
      <point x="887" y="686" type="line"/>
      <point x="857" y="683"/>
      <point x="797" y="683"/>
      <point x="772" y="683" type="curve" smooth="yes"/>
      <point x="758" y="683"/>
      <point x="691" y="683"/>
      <point x="628" y="686" type="curve"/>
      <point x="628" y="634" type="line"/>
      <point x="646" y="634"/>
      <point x="666" y="634"/>
      <point x="692" y="625" type="curve"/>
      <point x="692" y="625" type="line"/>
      <point x="304" y="322" type="line"/>
      <point x="304" y="634" type="line"/>
      <point x="304" y="634" type="line"/>
      <point x="412" y="634" type="line"/>
      <point x="412" y="686" type="line"/>
      <point x="374" y="683"/>
      <point x="273" y="683"/>
      <point x="230" y="683" type="curve" smooth="yes"/>
      <point x="186" y="683"/>
      <point x="85" y="683"/>
      <point x="47" y="686" type="curve"/>
      <point x="47" y="634" type="line"/>
      <point x="155" y="634" type="line"/>
      <point x="155" y="634" type="line"/>
      <point x="155" y="52" type="line"/>
      <point x="155" y="52" type="line"/>
      <point x="47" y="52" type="line"/>
    </contour>
  </outline>
</glyph>
<glyph name="P" format="2">
  <advance width="835"/>
  <unicode hex="0050"/>
  <outline>
    <contour>
      <point x="304" y="296" type="line"/>
      <point x="485" y="296" type="line" smooth="yes"/>
      <point x="664" y="296"/>
      <point x="766" y="382"/>
      <point x="766" y="489" type="curve" smooth="yes"/>
      <point x="766" y="597"/>
      <point x="665" y="686"/>
      <point x="485" y="686" type="curve" smooth="yes"/>
      <point x="47" y="686" type="line"/>
      <point x="47" y="634" type="line"/>
      <point x="155" y="634" type="line"/>
      <point x="155" y="634" type="line"/>
      <point x="155" y="52" type="line"/>
      <point x="155" y="52" type="line"/>
      <point x="47" y="52" type="line"/>
      <point x="47" y="0" type="line"/>
      <point x="85" y="3"/>
      <point x="186" y="3"/>
      <point x="230" y="3" type="curve" smooth="yes"/>
      <point x="273" y="3"/>
      <point x="374" y="3"/>
      <point x="412" y="0" type="curve"/>
      <point x="412" y="52" type="line"/>
      <point x="304" y="52" type="line"/>
      <point x="304" y="52" type="line"/>
    </contour>
    <contour>
      <point x="298" y="343" type="line"/>
      <point x="298" y="634" type="line"/>
      <point x="298" y="634" type="line"/>
      <point x="448" y="634" type="line" smooth="yes"/>
      <point x="606" y="634"/>
      <point x="606" y="558"/>
      <point x="606" y="489" type="curve" smooth="yes"/>
      <point x="606" y="420"/>
      <point x="606" y="343"/>
      <point x="447" y="343" type="curve" smooth="yes"/>
    </contour>
  </outline>
</glyph>
<glyph name="U" format="2">
  <advance width="938"/>
  <unicode hex="0055"/>
  <outline>
    <contour>
      <point x="491" y="38" type="curve" smooth="yes"/>
      <point x="306" y="38"/>
      <point x="304" y="170"/>
      <point x="304" y="225" type="curve" smooth="yes"/>
      <point x="304" y="634" type="line"/>
      <point x="304" y="634" type="line"/>
      <point x="412" y="634" type="line"/>
      <point x="412" y="686" type="line"/>
      <point x="374" y="683"/>
      <point x="273" y="683"/>
      <point x="230" y="683" type="curve" smooth="yes"/>
      <point x="186" y="683"/>
      <point x="85" y="683"/>
      <point x="47" y="686" type="curve"/>
      <point x="47" y="634" type="line"/>
      <point x="155" y="634" type="line"/>
      <point x="155" y="634" type="line"/>
      <point x="155" y="231" type="line" smooth="yes"/>
      <point x="155" y="98"/>
      <point x="267" y="-14"/>
      <point x="487" y="-14" type="curve" smooth="yes"/>
      <point x="696" y="-14"/>
      <point x="783" y="107"/>
      <point x="783" y="230" type="curve" smooth="yes"/>
      <point x="783" y="613" type="line" smooth="yes"/>
      <point x="783" y="634"/>
      <point x="805" y="634"/>
      <point x="863" y="634" type="curve" smooth="yes"/>
      <point x="891" y="634" type="line"/>
      <point x="891" y="686" type="line"/>
      <point x="812" y="683"/>
      <point x="810" y="683"/>
      <point x="750" y="683" type="curve" smooth="yes"/>
      <point x="690" y="683"/>
      <point x="688" y="683"/>
      <point x="609" y="686" type="curve"/>
      <point x="609" y="634" type="line"/>
      <point x="637" y="634" type="line" smooth="yes"/>
      <point x="697" y="634"/>
      <point x="717" y="634"/>
      <point x="717" y="613" type="curve" smooth="yes"/>
      <point x="717" y="232" type="line" smooth="yes"/>
      <point x="717" y="92"/>
      <point x="613" y="38"/>
    </contour>
  </outline>
</glyph>
<glyph name="a" format="2">
  <advance width="595"/>
  <unicode hex="0061"/>
  <outline>
    <contour>
      <point x="502" y="296" type="line" smooth="yes"/>
      <point x="502" y="386"/>
      <point x="430" y="455"/>
      <point x="267" y="455" type="curve" smooth="yes"/>
      <point x="218" y="455"/>
      <point x="75" y="455"/>
      <point x="75" y="356" type="curve" smooth="yes"/>
      <point x="75" y="312"/>
      <point x="109" y="288"/>
      <point x="142" y="288" type="curve" smooth="yes"/>
      <point x="182" y="288"/>
      <point x="210" y="317"/>
      <point x="210" y="355" type="curve" smooth="yes"/>
      <point x="210" y="387"/>
      <point x="190" y="405"/>
      <point x="189" y="406" type="curve"/>
      <point x="197" y="408"/>
      <point x="226" y="413"/>
      <point x="265" y="413" type="curve" smooth="yes"/>
      <point x="345" y="413"/>
      <point x="380" y="369"/>
      <point x="380" y="297" type="curve" smooth="yes"/>
      <point x="380" y="268" type="line"/>
      <point x="230" y="267"/>
      <point x="35" y="234"/>
      <point x="35" y="112" type="curve" smooth="yes"/>
      <point x="35" y="27"/>
      <point x="131" y="-7"/>
      <point x="240" y="-7" type="curve" smooth="yes"/>
      <point x="343" y="-7"/>
      <point x="386" y="48"/>
      <point x="399" y="68" type="curve"/>
      <point x="399" y="38"/>
      <point x="410" y="0"/>
      <point x="507" y="0" type="curve" smooth="yes"/>
      <point x="560" y="0" type="line" smooth="yes"/>
      <point x="579" y="0"/>
      <point x="594" y="0"/>
      <point x="594" y="26" type="curve" smooth="yes"/>
      <point x="594" y="52"/>
      <point x="578" y="52"/>
      <point x="564" y="52" type="curve" smooth="yes"/>
      <point x="502" y="52"/>
      <point x="502" y="62"/>
      <point x="502" y="85" type="curve" smooth="yes"/>
    </contour>
    <contour>
      <point x="380" y="137" type="line" smooth="yes"/>
      <point x="380" y="35"/>
      <point x="260" y="35"/>
      <point x="256" y="35" type="curve" smooth="yes"/>
      <point x="204" y="35"/>
      <point x="157" y="66"/>
      <point x="157" y="114" type="curve" smooth="yes"/>
      <point x="157" y="184"/>
      <point x="250" y="227"/>
      <point x="380" y="230" type="curve"/>
    </contour>
  </outline>
</glyph>
<glyph name="b" format="2">
  <advance width="680"/>
  <unicode hex="0062"/>
  <outline>
    <contour>
      <point x="112" y="0" type="line"/>
      <point x="168" y="0" type="line"/>
      <point x="214" y="55" type="line"/>
      <point x="259" y="12"/>
      <point x="311" y="-7"/>
      <point x="370" y="-7" type="curve" smooth="yes"/>
      <point x="539" y="-7"/>
      <point x="639" y="93"/>
      <point x="639" y="222" type="curve" smooth="yes"/>
      <point x="639" y="355"/>
      <point x="541" y="451"/>
      <point x="384" y="451" type="curve" smooth="yes"/>
      <point x="307" y="451"/>
      <point x="253" y="422"/>
      <point x="228" y="405" type="curve"/>
      <point x="228" y="694" type="line"/>
      <point x="46" y="686" type="line"/>
      <point x="46" y="634" type="line"/>
      <point x="105" y="634"/>
      <point x="112" y="634"/>
      <point x="112" y="595" type="curve" smooth="yes"/>
    </contour>
    <contour>
      <point x="361" y="35" type="curve" smooth="yes"/>
      <point x="287" y="35"/>
      <point x="245" y="90"/>
      <point x="234" y="107" type="curve"/>
      <point x="234" y="107" type="line"/>
      <point x="234" y="344" type="line"/>
      <point x="234" y="344" type="line"/>
      <point x="252" y="369"/>
      <point x="303" y="409"/>
      <point x="373" y="409" type="curve" smooth="yes"/>
      <point x="414.99991" y="409.0"/>
      <point x="443.5342288549" y="396.4595258038"/>
      <point x="462.9201597417305" y="377.37652381002255" type="curve" smooth="yes"/>
      <point x="504.0" y="336.938606326"/>
      <point x="504.0" y="267.12218"/>
      <point x="504" y="225" type="curve" smooth="yes"/>
      <point x="504.0" y="183.14658"/>
      <point x="504.0" y="113.0469113216"/>
      <point x="462.0717009824659" y="70.70312761759028" type="curve" smooth="yes"/>
      <point x="440.8872881092" y="49.3087897212"/>
      <point x="408.99938" y="35.0"/>
    </contour>
  </outline>
</glyph>
<glyph name="d" format="2">
  <advance width="680"/>
  <unicode hex="0064"/>
  <outline>
    <contour>
      <point x="446" y="42" type="curve"/>
      <point x="446" y="-7" type="line"/>
      <point x="634" y="0" type="line"/>
      <point x="634" y="52" type="line"/>
      <point x="575" y="52"/>
      <point x="568" y="52"/>
      <point x="568" y="91" type="curve" smooth="yes"/>
      <point x="568" y="694" type="line"/>
      <point x="386" y="686" type="line"/>
      <point x="386" y="634" type="line"/>
      <point x="445" y="634"/>
      <point x="452" y="634"/>
      <point x="452" y="595" type="curve" smooth="yes"/>
      <point x="452" y="408" type="line"/>
      <point x="398" y="445"/>
      <point x="346" y="451"/>
      <point x="309" y="451" type="curve" smooth="yes"/>
      <point x="140" y="451"/>
      <point x="41" y="351"/>
      <point x="41" y="222" type="curve" smooth="yes"/>
      <point x="41" y="91"/>
      <point x="138" y="-7"/>
      <point x="297" y="-7" type="curve" smooth="yes"/>
      <point x="370" y="-7"/>
      <point x="420" y="22"/>
    </contour>
    <contour>
      <point x="176" y="219" type="curve" smooth="yes"/>
      <point x="176.0" y="260.85342"/>
      <point x="176.0" y="330.95308867840004"/>
      <point x="217.92829901753407" y="373.29687238240973" type="curve" smooth="yes"/>
      <point x="239.1127118908" y="394.6912102788"/>
      <point x="271.00062" y="409.0"/>
      <point x="319" y="409" type="curve" smooth="yes"/>
      <point x="365" y="409"/>
      <point x="412" y="390"/>
      <point x="446" y="347" type="curve"/>
      <point x="446" y="347" type="line"/>
      <point x="446" y="111" type="line"/>
      <point x="446" y="111" type="line"/>
      <point x="399" y="45"/>
      <point x="340" y="35"/>
      <point x="306" y="35" type="curve" smooth="yes"/>
      <point x="265.0006" y="35.0"/>
      <point x="236.93159077200002" y="47.333603505599996"/>
      <point x="217.71498567432664" y="66.10341445038006" type="curve" smooth="yes"/>
      <point x="176.0" y="106.84850915839999"/>
      <point x="176.0" y="177.9228"/>
    </contour>
  </outline>
</glyph>
<glyph name="f" format="2">
  <advance width="374"/>
  <unicode hex="0066"/>
  <outline>
    <contour>
      <point x="125" y="52" type="line"/>
      <point x="59" y="52" type="line"/>
      <point x="59" y="52" type="line"/>
      <point x="59" y="0" type="line"/>
      <point x="117" y="3"/>
      <point x="127" y="3"/>
      <point x="187" y="3" type="curve" smooth="yes"/>
      <point x="244" y="3"/>
      <point x="246" y="3"/>
      <point x="323" y="0" type="curve"/>
      <point x="323" y="52" type="line"/>
      <point x="323" y="52" type="line"/>
      <point x="241" y="52" type="line"/>
      <point x="241" y="392" type="line"/>
      <point x="363" y="392" type="line"/>
      <point x="363" y="444" type="line"/>
      <point x="235" y="444" type="line"/>
      <point x="235" y="542" type="line" smooth="yes"/>
      <point x="235" y="597"/>
      <point x="258" y="659"/>
      <point x="340" y="659" type="curve" smooth="yes"/>
      <point x="343" y="659"/>
      <point x="353" y="659"/>
      <point x="353" y="657" type="curve"/>
      <point x="349" y="651"/>
      <point x="335" y="636"/>
      <point x="335" y="609" type="curve" smooth="yes"/>
      <point x="335" y="565"/>
      <point x="370" y="543"/>
      <point x="401" y="543" type="curve" smooth="yes"/>
      <point x="431" y="543"/>
      <point x="467" y="565"/>
      <point x="467" y="609" type="curve" smooth="yes"/>
      <point x="467" y="655"/>
      <point x="427" y="701"/>
      <point x="343" y="701" type="curve" smooth="yes"/>
      <point x="242" y="701"/>
      <point x="125" y="660"/>
      <point x="125" y="541" type="curve" smooth="yes"/>
      <point x="125" y="444" type="line"/>
      <point x="46" y="444" type="line"/>
      <point x="46" y="392" type="line"/>
      <point x="125" y="392" type="line"/>
    </contour>
  </outline>
</glyph>
<glyph name="g" format="2">
  <advance width="612"/>
  <unicode hex="0067"/>
  <outline>
    <contour>
      <point x="306" y="-202" type="curve" smooth="yes"/>
      <point x="495" y="-202"/>
      <point x="578" y="-142"/>
      <point x="578" y="-71" type="curve" smooth="yes"/>
      <point x="578" y="26"/>
      <point x="503" y="57"/>
      <point x="482" y="65" type="curve" smooth="yes"/>
      <point x="428" y="87"/>
      <point x="367" y="87"/>
      <point x="276" y="87" type="curve" smooth="yes"/>
      <point x="200" y="87" type="line" smooth="yes"/>
      <point x="164" y="87"/>
      <point x="137" y="113"/>
      <point x="137" y="149" type="curve" smooth="yes"/>
      <point x="137" y="159"/>
      <point x="140" y="170"/>
      <point x="145" y="177" type="curve"/>
      <point x="186" y="157"/>
      <point x="235" y="152"/>
      <point x="272" y="152" type="curve" smooth="yes"/>
      <point x="434" y="152"/>
      <point x="483" y="240"/>
      <point x="483" y="301" type="curve" smooth="yes"/>
      <point x="483" y="355"/>
      <point x="449" y="390"/>
      <point x="443" y="395" type="curve"/>
      <point x="470" y="409"/>
      <point x="490" y="412"/>
      <point x="504" y="414" type="curve"/>
      <point x="501" y="408"/>
      <point x="500" y="398"/>
      <point x="500" y="393" type="curve" smooth="yes"/>
      <point x="500" y="365"/>
      <point x="520" y="345"/>
      <point x="547" y="345" type="curve" smooth="yes"/>
      <point x="574" y="345"/>
      <point x="595" y="365"/>
      <point x="595" y="393" type="curve" smooth="yes"/>
      <point x="595" y="423"/>
      <point x="572" y="458"/>
      <point x="525" y="458" type="curve" smooth="yes"/>
      <point x="486" y="458"/>
      <point x="441" y="442"/>
      <point x="412" y="419" type="curve"/>
      <point x="376" y="439"/>
      <point x="335" y="451"/>
      <point x="272" y="451" type="curve" smooth="yes"/>
      <point x="110" y="451"/>
      <point x="61" y="363"/>
      <point x="61" y="302" type="curve" smooth="yes"/>
      <point x="61" y="244"/>
      <point x="95" y="214"/>
      <point x="113" y="198" type="curve"/>
      <point x="93" y="174"/>
      <point x="80" y="142"/>
      <point x="80" y="109" type="curve" smooth="yes"/>
      <point x="80" y="73"/>
      <point x="95" y="38"/>
      <point x="121" y="13" type="curve"/>
      <point x="79" y="2"/>
      <point x="34" y="-26"/>
      <point x="34" y="-74" type="curve" smooth="yes"/>
      <point x="34" y="-127"/>
      <point x="93" y="-202"/>
    </contour>
    <contour>
      <point x="272" y="195" type="curve" smooth="yes"/>
      <point x="177" y="195"/>
      <point x="177" y="261"/>
      <point x="177" y="301" type="curve" smooth="yes"/>
      <point x="177.0" y="326.64226"/>
      <point x="177.0" y="360.85769826070003"/>
      <point x="198.61944955360832" y="383.61987730086287" type="curve" smooth="yes"/>
      <point x="212.4109536855" y="398.14035274150007"/>
      <point x="235.00035" y="408.00000000000006"/>
      <point x="272" y="408" type="curve" smooth="yes"/>
      <point x="367" y="408"/>
      <point x="367" y="342"/>
      <point x="367" y="302" type="curve" smooth="yes"/>
      <point x="367.0" y="275.9159"/>
      <point x="367.0" y="240.9606286425"/>
      <point x="344.24361337827565" y="218.213786166571" type="curve" smooth="yes"/>
      <point x="330.3582052625" y="204.3342016625"/>
      <point x="308.00025" y="195.0"/>
    </contour>
    <contour>
      <point x="306" y="-159" type="curve" smooth="yes"/>
      <point x="174" y="-159"/>
      <point x="127" y="-111"/>
      <point x="127" y="-73" type="curve" smooth="yes"/>
      <point x="127.0" y="-52.7"/>
      <point x="135.54140625" y="-39.758750000000006"/>
      <point x="147.146220703125" y="-31.508703125000004" type="curve" smooth="yes"/>
      <point x="167.5546875" y="-17.000000000000007"/>
      <point x="197.4375" y="-17.000000000000007"/>
      <point x="207" y="-17" type="curve" smooth="yes"/>
      <point x="334" y="-17" type="line" smooth="yes"/>
      <point x="364" y="-17"/>
      <point x="485" y="-17"/>
      <point x="485" y="-74" type="curve" smooth="yes"/>
      <point x="485" y="-108"/>
      <point x="443" y="-159"/>
    </contour>
  </outline>
</glyph>
<glyph name="k" format="2">
  <advance width="646"/>
  <unicode hex="006B"/>
  <outline>
    <contour>
      <point x="370" y="274" type="line"/>
      <point x="510" y="376" type="line" smooth="yes"/>
      <point x="524" y="386"/>
      <point x="532" y="392"/>
      <point x="599" y="392" type="curve"/>
      <point x="599" y="444" type="line"/>
      <point x="564" y="441"/>
      <point x="562" y="441"/>
      <point x="512" y="441" type="curve" smooth="yes"/>
      <point x="473" y="441"/>
      <point x="456" y="441"/>
      <point x="401" y="444" type="curve"/>
      <point x="401" y="392" type="line"/>
      <point x="416" y="392"/>
      <point x="419" y="389"/>
      <point x="423" y="383" type="curve"/>
      <point x="423" y="383" type="line"/>
      <point x="228" y="240" type="line"/>
      <point x="228" y="694" type="line"/>
      <point x="46" y="686" type="line"/>
      <point x="46" y="634" type="line"/>
      <point x="105" y="634"/>
      <point x="112" y="634"/>
      <point x="112" y="595" type="curve" smooth="yes"/>
      <point x="112" y="52" type="line"/>
      <point x="112" y="52" type="line"/>
      <point x="46" y="52" type="line"/>
      <point x="46" y="0" type="line"/>
      <point x="97" y="3"/>
      <point x="128" y="3"/>
      <point x="166" y="3" type="curve" smooth="yes"/>
      <point x="208" y="3"/>
      <point x="236" y="3"/>
      <point x="287" y="0" type="curve"/>
      <point x="287" y="52" type="line"/>
      <point x="221" y="52" type="line"/>
      <point x="221" y="52" type="line"/>
      <point x="221" y="165" type="line"/>
      <point x="286" y="213" type="line"/>
      <point x="408" y="75" type="line" smooth="yes"/>
      <point x="416" y="66"/>
      <point x="420" y="60"/>
      <point x="420" y="59" type="curve" smooth="yes"/>
      <point x="420" y="52"/>
      <point x="405" y="52"/>
      <point x="397" y="52" type="curve"/>
      <point x="397" y="0" type="line"/>
      <point x="455" y="3"/>
      <point x="472" y="3"/>
      <point x="517" y="3" type="curve" smooth="yes"/>
      <point x="531" y="3"/>
      <point x="594" y="3"/>
      <point x="626" y="0" type="curve"/>
      <point x="626" y="52" type="line"/>
      <point x="569" y="51"/>
      <point x="562" y="55"/>
      <point x="550" y="69" type="curve" smooth="yes"/>
    </contour>
  </outline>
</glyph>
<glyph name="o" format="2">
  <advance width="612"/>
  <unicode hex="006F"/>
  <outline>
    <contour>
      <point x="578" y="218" type="curve" smooth="yes"/>
      <point x="578" y="344"/>
      <point x="489" y="455"/>
      <point x="306" y="455" type="curve" smooth="yes"/>
      <point x="122" y="455"/>
      <point x="34" y="343"/>
      <point x="34" y="218" type="curve" smooth="yes"/>
      <point x="34" y="99"/>
      <point x="122" y="-7"/>
      <point x="306" y="-7" type="curve" smooth="yes"/>
      <point x="492" y="-7"/>
      <point x="578" y="100"/>
    </contour>
    <contour>
      <point x="306" y="40" type="curve" smooth="yes"/>
      <point x="258.00068" y="40.0"/>
      <point x="226.8184017552" y="52.643469348800004"/>
      <point x="206.56114651624816" y="72.81252314732794" type="curve" smooth="yes"/>
      <point x="169.0" y="110.2101259264"/>
      <point x="169.0" y="173.48132"/>
      <point x="169" y="230" type="curve" smooth="yes"/>
      <point x="169" y="283"/>
      <point x="169.0" y="343.1831728364"/>
      <point x="205.30909876119185" y="379.73028835341154" type="curve" smooth="yes"/>
      <point x="225.5262925572" y="400.0800117644"/>
      <point x="257" y="413"/>
      <point x="306" y="413" type="curve" smooth="yes"/>
      <point x="354.99942" y="413.0"/>
      <point x="386.4737074428" y="399.9520910888"/>
      <point x="406.6909012388082" y="379.4837826531168" type="curve" smooth="yes"/>
      <point x="443.0" y="342.7236941876"/>
      <point x="443.0" y="282.02954"/>
      <point x="443" y="230" type="curve" smooth="yes"/>
      <point x="443.0" y="173.48132"/>
      <point x="443.0" y="110.21012592640002"/>
      <point x="405.43885348375187" y="72.81252314732794" type="curve" smooth="yes"/>
      <point x="385.1815982448" y="52.643469348800004"/>
      <point x="353.99932" y="40.00000000000001"/>
    </contour>
  </outline>
</glyph>
<glyph name="u" format="2">
  <advance width="680"/>
  <unicode hex="0075"/>
  <outline>
    <contour>
      <point x="122" y="352" type="curve" smooth="yes"/>
      <point x="122" y="123" type="line" smooth="yes"/>
      <point x="122.0" y="83.33296"/>
      <point x="133.7910205566" y="55.4569405566"/>
      <point x="153.37473914269583" y="35.99558042468981" type="curve" smooth="yes"/>
      <point x="189.0857055556" y="0.5077350002000074"/>
      <point x="250.70865999999998" y="-6.999999999999993"/>
      <point x="314" y="-7" type="curve" smooth="yes"/>
      <point x="347" y="-7"/>
      <point x="414" y="-7"/>
      <point x="468" y="63" type="curve"/>
      <point x="468" y="63" type="line"/>
      <point x="468" y="-7" type="line"/>
      <point x="650" y="0" type="line"/>
      <point x="650" y="52" type="line"/>
      <point x="591" y="52"/>
      <point x="584" y="52"/>
      <point x="584" y="91" type="curve" smooth="yes"/>
      <point x="584" y="451" type="line"/>
      <point x="396" y="443" type="line"/>
      <point x="396" y="391" type="line"/>
      <point x="455" y="391"/>
      <point x="462" y="391"/>
      <point x="462" y="352" type="curve" smooth="yes"/>
      <point x="462" y="162" type="line" smooth="yes"/>
      <point x="462" y="86"/>
      <point x="409" y="35"/>
      <point x="328" y="35" type="curve" smooth="yes"/>
      <point x="247" y="35"/>
      <point x="244" y="58"/>
      <point x="244" y="109" type="curve" smooth="yes"/>
      <point x="244" y="451" type="line"/>
      <point x="56" y="443" type="line"/>
      <point x="56" y="391" type="line"/>
      <point x="115" y="391"/>
      <point x="122" y="391"/>
    </contour>
  </outline>
</glyph>
<glyph name="Oslash" format="2">
  <advance width="952"/>
  <unicode hex="00D8"/>
  <outline>
    <contour>
      <point x="786" y="721" type="line"/>
      <point x="749" y="749" type="line"/>
      <point x="683" y="660" type="line"/>
      <point x="619" y="688"/>
      <point x="545" y="700"/>
      <point x="476" y="700" type="curve" smooth="yes"/>
      <point x="204" y="700"/>
      <point x="68" y="534"/>
      <point x="68" y="339" type="curve" smooth="yes"/>
      <point x="68" y="281"/>
      <point x="81" y="136"/>
      <point x="227" y="48" type="curve"/>
      <point x="166" y="-35" type="line"/>
      <point x="203" y="-63" type="line"/>
      <point x="269" y="26" type="line"/>
      <point x="340" y="-6"/>
      <point x="417" y="-14"/>
      <point x="476" y="-14" type="curve" smooth="yes"/>
      <point x="746" y="-14"/>
      <point x="884" y="146"/>
      <point x="884" y="339" type="curve" smooth="yes"/>
      <point x="884" y="436"/>
      <point x="847" y="563"/>
      <point x="724" y="637" type="curve"/>
    </contour>
    <contour>
      <point x="476" y="28" type="curve" smooth="yes"/>
      <point x="399" y="28"/>
      <point x="341" y="51"/>
      <point x="308" y="77" type="curve"/>
      <point x="678" y="575" type="line"/>
      <point x="728" y="511"/>
      <point x="735" y="431"/>
      <point x="735" y="340" type="curve" smooth="yes"/>
      <point x="735" y="249"/>
      <point x="729" y="169"/>
      <point x="675" y="105" type="curve" smooth="yes"/>
      <point x="633" y="57"/>
      <point x="562" y="28"/>
    </contour>
    <contour>
      <point x="273" y="110" type="line"/>
      <point x="221" y="174"/>
      <point x="217" y="263"/>
      <point x="217" y="340" type="curve" smooth="yes"/>
      <point x="217" y="409"/>
      <point x="219" y="512"/>
      <point x="278" y="580" type="curve" smooth="yes"/>
      <point x="337" y="646"/>
      <point x="422" y="658"/>
      <point x="476" y="658" type="curve" smooth="yes"/>
      <point x="546" y="658"/>
      <point x="605" y="638"/>
      <point x="643" y="608" type="curve"/>
    </contour>
  </outline>
</glyph>
<glyph name="oslash" format="2">
  <advance width="612"/>
  <unicode hex="00F8"/>
  <outline>
    <contour>
      <point x="112" y="-109" type="line"/>
      <point x="190" y="10" type="line"/>
      <point x="227" y="-2"/>
      <point x="266" y="-7"/>
      <point x="306" y="-7" type="curve" smooth="yes"/>
      <point x="492" y="-7"/>
      <point x="578" y="100"/>
      <point x="578" y="218" type="curve" smooth="yes"/>
      <point x="578" y="291"/>
      <point x="546" y="374"/>
      <point x="462" y="419" type="curve"/>
      <point x="534" y="530" type="line"/>
      <point x="500" y="554" type="line"/>
      <point x="423" y="437" type="line"/>
      <point x="369" y="455"/>
      <point x="319" y="455"/>
      <point x="306" y="455" type="curve" smooth="yes"/>
      <point x="122" y="455"/>
      <point x="34" y="343"/>
      <point x="34" y="218" type="curve" smooth="yes"/>
      <point x="34" y="150"/>
      <point x="64" y="71"/>
      <point x="151" y="26" type="curve"/>
      <point x="78" y="-85" type="line"/>
    </contour>
    <contour>
      <point x="306" y="35" type="curve" smooth="yes"/>
      <point x="295" y="35"/>
      <point x="253" y="35"/>
      <point x="220" y="54" type="curve"/>
      <point x="425" y="364" type="line"/>
      <point x="455" y="327"/>
      <point x="456" y="277"/>
      <point x="456" y="219" type="curve" smooth="yes"/>
      <point x="456.0" y="170.86692"/>
      <point x="456.0" y="109.89841955520001"/>
      <point x="417.89504610794444" y="71.6591222981852" type="curve" smooth="yes"/>
      <point x="395.833966665" y="49.52026400120002"/>
      <point x="361.0005" y="35.000000000000014"/>
    </contour>
    <contour>
      <point x="186" y="80" type="line"/>
      <point x="156" y="117"/>
      <point x="156" y="171"/>
      <point x="156" y="219" type="curve" smooth="yes"/>
      <point x="156.0" y="268.14692"/>
      <point x="156.0" y="334.8574877338"/>
      <point x="196.56387171434446" y="375.86357337276587" type="curve" smooth="yes"/>
      <point x="218.72731333500002" y="398.2686335098"/>
      <point x="253.00050000000002" y="413.0"/>
      <point x="306" y="413" type="curve" smooth="yes"/>
      <point x="357" y="413"/>
      <point x="390" y="395"/>
      <point x="393" y="393" type="curve"/>
    </contour>
  </outline>
</glyph>
<glyph name="circumflex" format="2">
  <advance width="612"/>
  <unicode hex="02C6"/>
  <outline>
    <contour>
      <point x="306" y="694" type="line"/>
      <point x="137" y="570" type="line"/>
      <point x="169" y="524" type="line"/>
      <point x="306" y="605" type="line"/>
      <point x="443" y="524" type="line"/>
      <point x="475" y="570" type="line"/>
    </contour>
  </outline>
</glyph>
<glyph name="Theta" format="2">
  <advance width="952"/>
  <unicode hex="0398"/>
  <outline>
    <contour>
      <point x="884" y="339" type="curve" smooth="yes"/>
      <point x="884" y="535"/>
      <point x="747" y="700"/>
      <point x="476" y="700" type="curve" smooth="yes"/>
      <point x="204" y="700"/>
      <point x="68" y="534"/>
      <point x="68" y="339" type="curve" smooth="yes"/>
      <point x="68" y="146"/>
      <point x="206" y="-14"/>
      <point x="476" y="-14" type="curve" smooth="yes"/>
      <point x="746" y="-14"/>
      <point x="884" y="146"/>
    </contour>
    <contour>
      <point x="476" y="30" type="curve" smooth="yes"/>
      <point x="385" y="30"/>
      <point x="316" y="67"/>
      <point x="278" y="113" type="curve" smooth="yes"/>
      <point x="236" y="166"/>
      <point x="215" y="233"/>
      <point x="215" y="339" type="curve" smooth="yes"/>
      <point x="215" y="378"/>
      <point x="216" y="487"/>
      <point x="271" y="562" type="curve" smooth="yes"/>
      <point x="329" y="640"/>
      <point x="414" y="658"/>
      <point x="476" y="658" type="curve" smooth="yes"/>
      <point x="534" y="658"/>
      <point x="623" y="642"/>
      <point x="684" y="558" type="curve" smooth="yes"/>
      <point x="734" y="487"/>
      <point x="737" y="387"/>
      <point x="737" y="339" type="curve" smooth="yes"/>
      <point x="737" y="234"/>
      <point x="717" y="169"/>
      <point x="676" y="116" type="curve" smooth="yes"/>
      <point x="637" y="66"/>
      <point x="566" y="30"/>
    </contour>
    <contour>
      <point x="668" y="442" type="line"/>
      <point x="612" y="442" type="line"/>
      <point x="612" y="408" type="line"/>
      <point x="340" y="408" type="line"/>
      <point x="340" y="442" type="line"/>
      <point x="284" y="442" type="line"/>
      <point x="284" y="246" type="line"/>
      <point x="340" y="246" type="line"/>
      <point x="340" y="280" type="line"/>
      <point x="612" y="280" type="line"/>
      <point x="612" y="246" type="line"/>
      <point x="668" y="246" type="line"/>
    </contour>
  </outline>
</glyph>
<glyph name="Xi" format="2">
  <advance width="816"/>
  <unicode hex="039E"/>
  <outline>
    <contour>
      <point x="748" y="673" type="line"/>
      <point x="68" y="673" type="line"/>
      <point x="58" y="470" type="line"/>
      <point x="114" y="470" type="line"/>
      <point x="115" y="487"/>
      <point x="117" y="539"/>
      <point x="131" y="548" type="curve" smooth="yes"/>
      <point x="141" y="555"/>
      <point x="198" y="555"/>
      <point x="212" y="555" type="curve" smooth="yes"/>
      <point x="604" y="555" type="line" smooth="yes"/>
      <point x="617" y="555"/>
      <point x="678" y="555"/>
      <point x="686" y="547" type="curve"/>
      <point x="699" y="536"/>
      <point x="701" y="489"/>
      <point x="702" y="470" type="curve"/>
      <point x="758" y="470" type="line"/>
    </contour>
    <contour>
      <point x="61" y="0" type="line"/>
      <point x="755" y="0" type="line"/>
      <point x="765" y="213" type="line"/>
      <point x="709" y="213" type="line"/>
      <point x="708" y="189"/>
      <point x="706" y="138"/>
      <point x="693" y="127" type="curve"/>
      <point x="684" y="118"/>
      <point x="637" y="118"/>
      <point x="606" y="118" type="curve" smooth="yes"/>
      <point x="210" y="118" type="line" smooth="yes"/>
      <point x="203" y="118"/>
      <point x="128" y="118"/>
      <point x="122" y="128" type="curve"/>
      <point x="112" y="141"/>
      <point x="109" y="164"/>
      <point x="107" y="213" type="curve"/>
      <point x="51" y="213" type="line"/>
    </contour>
    <contour>
      <point x="646" y="450" type="line"/>
      <point x="590" y="450" type="line"/>
      <point x="590" y="409" type="line"/>
      <point x="226" y="409" type="line"/>
      <point x="226" y="450" type="line"/>
      <point x="170" y="450" type="line"/>
      <point x="170" y="250" type="line"/>
      <point x="226" y="250" type="line"/>
      <point x="226" y="291" type="line"/>
      <point x="590" y="291" type="line"/>
      <point x="590" y="250" type="line"/>
      <point x="646" y="250" type="line"/>
    </contour>
  </outline>
</glyph>
<glyph name="Upsilon" format="2">
  <advance width="952"/>
  <unicode hex="03A5"/>
  <outline>
    <contour>
      <point x="551" y="344" type="line" smooth="yes"/>
      <point x="551" y="408"/>
      <point x="569" y="473"/>
      <point x="598" y="514" type="curve" smooth="yes"/>
      <point x="645" y="580"/>
      <point x="696" y="580"/>
      <point x="728" y="580" type="curve" smooth="yes"/>
      <point x="778" y="580"/>
      <point x="814" y="575"/>
      <point x="818" y="552" type="curve" smooth="yes"/>
      <point x="821" y="528"/>
      <point x="830" y="528"/>
      <point x="851" y="528" type="curve" smooth="yes"/>
      <point x="867" y="528"/>
      <point x="884" y="528"/>
      <point x="884" y="553" type="curve" smooth="yes"/>
      <point x="884" y="626"/>
      <point x="814" y="700"/>
      <point x="715" y="700" type="curve" smooth="yes"/>
      <point x="607" y="700"/>
      <point x="516" y="620"/>
      <point x="477" y="470" type="curve"/>
      <point x="476" y="470" type="line"/>
      <point x="447" y="591"/>
      <point x="364" y="700"/>
      <point x="237" y="700" type="curve" smooth="yes"/>
      <point x="137" y="700"/>
      <point x="68" y="626"/>
      <point x="68" y="553" type="curve" smooth="yes"/>
      <point x="68" y="528"/>
      <point x="85" y="528"/>
      <point x="101" y="528" type="curve" smooth="yes"/>
      <point x="116" y="528"/>
      <point x="131" y="528"/>
      <point x="134" y="547" type="curve" smooth="yes"/>
      <point x="136" y="563"/>
      <point x="139" y="580"/>
      <point x="224" y="580" type="curve" smooth="yes"/>
      <point x="254" y="580"/>
      <point x="314" y="580"/>
      <point x="360" y="505" type="curve" smooth="yes"/>
      <point x="393" y="453"/>
      <point x="402" y="389"/>
      <point x="402" y="344" type="curve" smooth="yes"/>
      <point x="402" y="52" type="line"/>
      <point x="267" y="52" type="line"/>
      <point x="267" y="0" type="line"/>
      <point x="304" y="3"/>
      <point x="431" y="3"/>
      <point x="476" y="3" type="curve" smooth="yes"/>
      <point x="521" y="3"/>
      <point x="649" y="3"/>
      <point x="686" y="0" type="curve"/>
      <point x="686" y="52" type="line"/>
      <point x="551" y="52" type="line"/>
    </contour>
  </outline>
</glyph>
<glyph name="quoteright" format="2">
  <advance width="340"/>
  <unicode hex="2019"/>
  <outline>
    <contour>
      <point x="138" y="340" type="curve" smooth="yes"/>
      <point x="156" y="340"/>
      <point x="267" y="425"/>
      <point x="267" y="567" type="curve" smooth="yes"/>
      <point x="267" y="639"/>
      <point x="226" y="694"/>
      <point x="170" y="694" type="curve" smooth="yes"/>
      <point x="119" y="694"/>
      <point x="90" y="655"/>
      <point x="90" y="614" type="curve" smooth="yes"/>
      <point x="90" y="573"/>
      <point x="118" y="534"/>
      <point x="170" y="534" type="curve" smooth="yes"/>
      <point x="194" y="534"/>
      <point x="213" y="543"/>
      <point x="224" y="553" type="curve"/>
      <point x="219" y="481"/>
      <point x="186" y="424"/>
      <point x="130" y="381" type="curve"/>
      <point x="121" y="375"/>
      <point x="116" y="371"/>
      <point x="116" y="362" type="curve" smooth="yes"/>
      <point x="116" y="352"/>
      <point x="128" y="340"/>
    </contour>
  </outline>
</glyph>
<glyph name="ffi" format="2">
  <advance width="1020"/>
  <outline>
    <contour>
      <point x="726" y="448" type="line"/>
      <point x="726" y="444" type="line"/>
      <point x="562" y="444" type="line"/>
      <point x="562" y="539" type="line" smooth="yes"/>
      <point x="562" y="631"/>
      <point x="651" y="659"/>
      <point x="731" y="659" type="curve" smooth="yes"/>
      <point x="755" y="659"/>
      <point x="777" y="657"/>
      <point x="804" y="643" type="curve"/>
      <point x="779" y="631"/>
      <point x="766" y="608"/>
      <point x="766" y="580" type="curve" smooth="yes"/>
      <point x="766" y="539"/>
      <point x="795" y="511"/>
      <point x="835" y="511" type="curve" smooth="yes"/>
      <point x="876" y="511"/>
      <point x="904" y="540"/>
      <point x="904" y="580" type="curve" smooth="yes"/>
      <point x="904" y="640"/>
      <point x="851" y="701"/>
      <point x="737" y="701" type="curve" smooth="yes"/>
      <point x="647" y="701"/>
      <point x="580" y="686"/>
      <point x="525" y="656" type="curve"/>
      <point x="479" y="701"/>
      <point x="415" y="701"/>
      <point x="393" y="701" type="curve" smooth="yes"/>
      <point x="272" y="701"/>
      <point x="112" y="666"/>
      <point x="112" y="540" type="curve" smooth="yes"/>
      <point x="112" y="444" type="line"/>
      <point x="33" y="444" type="line"/>
      <point x="33" y="392" type="line"/>
      <point x="112" y="392" type="line"/>
      <point x="112" y="52" type="line"/>
      <point x="46" y="52" type="line"/>
      <point x="46" y="0" type="line"/>
      <point x="104" y="3"/>
      <point x="114" y="3"/>
      <point x="170" y="3" type="curve" smooth="yes"/>
      <point x="226" y="3"/>
      <point x="236" y="3"/>
      <point x="294" y="0" type="curve"/>
      <point x="294" y="52" type="line"/>
      <point x="228" y="52" type="line"/>
      <point x="228" y="392" type="line"/>
      <point x="452" y="392" type="line"/>
      <point x="452" y="52" type="line"/>
      <point x="386" y="52" type="line"/>
      <point x="386" y="0" type="line"/>
      <point x="444" y="3"/>
      <point x="454" y="3"/>
      <point x="510" y="3" type="curve" smooth="yes"/>
      <point x="566" y="3"/>
      <point x="576" y="3"/>
      <point x="634" y="0" type="curve"/>
      <point x="634" y="52" type="line"/>
      <point x="568" y="52" type="line"/>
      <point x="568" y="392" type="line"/>
      <point x="761" y="392" type="line" smooth="yes"/>
      <point x="786" y="392"/>
      <point x="792" y="392"/>
      <point x="792" y="357" type="curve" smooth="yes"/>
      <point x="792" y="52" type="line"/>
      <point x="726" y="52" type="line"/>
      <point x="726" y="0" type="line"/>
      <point x="784" y="3"/>
      <point x="794" y="3"/>
      <point x="850" y="3" type="curve" smooth="yes"/>
      <point x="906" y="3"/>
      <point x="916" y="3"/>
      <point x="974" y="0" type="curve"/>
      <point x="974" y="52" type="line"/>
      <point x="908" y="52" type="line"/>
      <point x="908" y="454" type="line"/>
    </contour>
    <contour>
      <point x="222" y="444" type="line"/>
      <point x="222" y="539" type="line" smooth="yes"/>
      <point x="222" y="626"/>
      <point x="299" y="659"/>
      <point x="388" y="659" type="curve" smooth="yes"/>
      <point x="398" y="659"/>
      <point x="427" y="659"/>
      <point x="459" y="644" type="curve"/>
      <point x="443" y="636"/>
      <point x="419" y="616"/>
      <point x="419" y="580" type="curve" smooth="yes"/>
      <point x="419" y="572"/>
      <point x="421" y="539"/>
      <point x="452" y="521" type="curve"/>
      <point x="452" y="444" type="line"/>
    </contour>
  </outline>
</glyph>
